<svg width="70" height="70" viewBox="0 0 70 70" fill="none" xmlns="http://www.w3.org/2000/svg">
<g filter="url(#filter0_d_786_174)">
<rect x="15" y="15" width="40" height="40" rx="20" fill="white"/>
<path d="M41 31C41 29.4087 40.3679 27.8826 39.2426 26.7574C38.1174 25.6321 36.5913 25 35 25C33.4087 25 31.8826 25.6321 30.7574 26.7574C29.6321 27.8826 29 29.4087 29 31C29 38 26 40 26 40H44C44 40 41 38 41 31Z" stroke="#555555" stroke-width="2" stroke-linecap="round" stroke-linejoin="round"/>
<path d="M36.73 44C36.5542 44.3031 36.3019 44.5547 35.9982 44.7295C35.6946 44.9044 35.3504 44.9965 35 44.9965C34.6496 44.9965 34.3054 44.9044 34.0018 44.7295C33.6982 44.5547 33.4458 44.3031 33.27 44" stroke="#555555" stroke-width="2" stroke-linecap="round" stroke-linejoin="round"/>
<rect x="15.5" y="15.5" width="39" height="39" rx="19.5" stroke="#EEEEEE"/>
</g>
<defs>
<filter id="filter0_d_786_174" x="0" y="0" width="70" height="70" filterUnits="userSpaceOnUse" color-interpolation-filters="sRGB">
<feFlood flood-opacity="0" result="BackgroundImageFix"/>
<feColorMatrix in="SourceAlpha" type="matrix" values="0 0 0 0 0 0 0 0 0 0 0 0 0 0 0 0 0 0 127 0" result="hardAlpha"/>
<feOffset/>
<feGaussianBlur stdDeviation="7.5"/>
<feComposite in2="hardAlpha" operator="out"/>
<feColorMatrix type="matrix" values="0 0 0 0 0 0 0 0 0 0 0 0 0 0 0 0 0 0 0.1 0"/>
<feBlend mode="normal" in2="BackgroundImageFix" result="effect1_dropShadow_786_174"/>
<feBlend mode="normal" in="SourceGraphic" in2="effect1_dropShadow_786_174" result="shape"/>
</filter>
</defs>
</svg>
