<svg width="90" height="90" viewBox="0 0 90 90" fill="none" xmlns="http://www.w3.org/2000/svg">
<path d="M45 82.5C65.7107 82.5 82.5 65.7107 82.5 45C82.5 24.2893 65.7107 7.5 45 7.5C24.2893 7.5 7.5 24.2893 7.5 45C7.5 65.7107 24.2893 82.5 45 82.5Z" stroke="white" stroke-width="3" stroke-linecap="round" stroke-linejoin="round"/>
<path d="M34.0875 33.7499C34.9692 31.2437 36.7093 29.1303 38.9999 27.7842C41.2904 26.438 43.9834 25.946 46.6019 26.3951C49.2205 26.8443 51.5956 28.2057 53.3066 30.2382C55.0175 32.2707 55.954 34.8431 55.95 37.4999C55.95 44.9999 44.7 48.7499 44.7 48.7499" stroke="white" stroke-width="3" stroke-linecap="round" stroke-linejoin="round"/>
<path d="M45 63.75H45.0379" stroke="white" stroke-width="3" stroke-linecap="round" stroke-linejoin="round"/>
</svg>
