<svg width="150" height="150" viewBox="0 0 150 150" fill="none" xmlns="http://www.w3.org/2000/svg">
<path d="M118.75 105.625C126.345 104.083 133.095 99.7737 137.692 93.5341C142.288 87.2946 144.402 79.5698 143.623 71.8593C142.844 64.1489 139.228 57.0028 133.477 51.8085C127.726 46.6142 120.25 43.7421 112.5 43.7499H104.625C102.554 35.7332 98.5252 28.3561 92.8993 22.2811C87.2735 16.2061 80.227 11.6232 72.3926 8.94406C64.5582 6.26489 56.181 5.57324 48.0133 6.93122C39.8456 8.28919 32.1429 11.6543 25.5969 16.7243C19.0508 21.7944 13.8664 28.4108 10.5089 35.9794C7.15146 43.548 5.72614 51.8319 6.36091 60.0874C6.99568 68.3429 9.67067 76.3115 14.1457 83.2778C18.6208 90.2442 24.7558 95.9902 32 99.9999" stroke="#9979C1" stroke-width="2" stroke-linecap="round" stroke-linejoin="round"/>
<path d="M81.25 68.75L56.25 106.25H93.75L68.75 143.75" stroke="#9979C1" stroke-width="2" stroke-linecap="round" stroke-linejoin="round"/>
</svg>
