<svg width="150" height="150" viewBox="0 0 150 150" fill="none" xmlns="http://www.w3.org/2000/svg">
<path d="M91.875 39.3748C90.7298 40.5431 90.0883 42.1139 90.0883 43.7498C90.0883 45.3858 90.7298 46.9565 91.875 48.1248L101.875 58.1248C103.043 59.27 104.614 59.9114 106.25 59.9114C107.886 59.9114 109.457 59.27 110.625 58.1248L134.187 34.5623C137.33 41.5072 138.282 49.245 136.915 56.7445C135.549 64.2439 131.929 71.1488 126.539 76.5391C121.149 81.9293 114.244 85.5488 106.745 86.9152C99.2452 88.2816 91.5074 87.33 84.5625 84.1873L41.375 127.375C38.8885 129.861 35.5163 131.258 32 131.258C28.4836 131.258 25.1114 129.861 22.625 127.375C20.1385 124.888 18.7417 121.516 18.7417 118C18.7417 114.483 20.1385 111.111 22.625 108.625L65.8124 65.4373C62.6697 58.4924 61.7182 50.7546 63.0846 43.2552C64.451 35.7557 68.0705 28.8508 73.4607 23.4606C78.8509 18.0704 85.7558 14.4509 93.2553 13.0845C100.755 11.718 108.493 12.6696 115.437 15.8123L91.9375 39.3123L91.875 39.3748Z" stroke="#C1A979" stroke-width="2" stroke-linecap="round" stroke-linejoin="round"/>
</svg>
