<svg width="150" height="150" viewBox="0 0 150 150" fill="none" xmlns="http://www.w3.org/2000/svg">
<path d="M131.25 100V50.0001C131.248 47.8081 130.669 45.6552 129.572 43.7574C128.475 41.8596 126.898 40.2836 125 39.1876L81.25 14.1876C79.3498 13.0905 77.1942 12.5129 75 12.5129C72.8058 12.5129 70.6502 13.0905 68.75 14.1876L25 39.1876C23.1016 40.2836 21.5249 41.8596 20.4279 43.7574C19.3309 45.6552 18.7522 47.8081 18.75 50.0001V100C18.7522 102.192 19.3309 104.345 20.4279 106.243C21.5249 108.141 23.1016 109.717 25 110.813L68.75 135.813C70.6502 136.91 72.8058 137.487 75 137.487C77.1942 137.487 79.3498 136.91 81.25 135.813L125 110.813C126.898 109.717 128.475 108.141 129.572 106.243C130.669 104.345 131.248 102.192 131.25 100Z" stroke="#799AC1" stroke-width="2" stroke-linecap="round" stroke-linejoin="round"/>
</svg>
